<?xml version="1.0" encoding="UTF-8"?>
<svg width="1686px" height="276px" viewBox="0 0 1686 276" version="1.1" xmlns="http://www.w3.org/2000/svg" xmlns:xlink="http://www.w3.org/1999/xlink">
    <title>logo-dark</title>
    <g id="Page-1" stroke="none" stroke-width="1" fill="none" fill-rule="evenodd">
        <g id="logo-dark" transform="translate(2, 1)">
            <line x1="92.6132" y1="116.57" x2="135.04" y2="158.996" id="Path" stroke="#0F6E56" stroke-width="30" stroke-linecap="round"></line>
            <path d="M135.289,1.00001 C118.795,1.10626 102.334,7.45183 89.7487,20.0367 L19.0381,90.7474 C-6.34602,116.131 -6.34602,157.287 19.0381,182.671 L89.7487,253.382 C102.334,265.967 118.795,272.312 135.289,272.419 L135.289,242.417 C126.473,242.312 117.689,238.896 110.962,232.169 L40.2513,161.458 C26.5829,147.79 26.5829,125.629 40.2513,111.961 L110.962,41.2499 C117.689,34.5229 126.473,31.1067 135.289,31.0012 L135.289,1.00001 Z" id="Path" fill="#0F6E56"></path>
            <path d="M251.673,63.5356 C257.53,57.6777 257.53,48.1802 251.673,42.3223 C245.815,36.4645 236.317,36.4645 230.459,42.3223 L135,137.782 L135,173.995 C138.839,173.995 142.678,172.531 145.607,169.602 L251.673,63.5356 Z" id="Path" fill="#1D9E75"></path>
            <line x1="227.637" y1="87.5033" x2="238.243" y2="98.1099" id="Path" stroke="#0F6E56" stroke-width="30"></line>
            <path d="M181.383,253.383 C168.584,266.182 151.775,272.528 135,272.421355 L135,242.419 C144.097,242.528 153.229,239.111 160.17,232.17 L230.881,161.459 C244.549,147.791 244.549,125.63 230.881,111.962 L227.633,108.714 L248.846,87.5013 L252.094,90.7487 C277.478,116.133 277.478,157.289 252.094,182.673 L181.383,253.383 Z M160.17,41.2513 C153.229,34.3099 144.097,30.8937 135,31.0025 L135,1.00136 C151.775,0.893292 168.584,7.23886 181.383,20.0381 L196.244,34.8985 L175.03,56.1117 L160.17,41.2513 Z" id="Shape" fill="#1D9E75"></path>
            <path d="M392.833,192.791 C398.569,192.791 403.871,191.618 408.738,189.271 C413.605,186.924 417.604,183.708 420.732,179.624 C423.861,175.452 425.643,170.715 426.078,165.413 L449.023,165.413 C448.588,173.757 445.764,181.536 440.549,188.75 C435.421,195.876 428.685,201.656 420.341,206.089 C411.998,210.435 402.828,212.607 392.833,212.607 C382.229,212.607 372.973,210.739 365.064,207.001 C357.242,203.264 350.723,198.136 345.508,191.618 C340.38,185.099 336.513,177.625 333.905,169.194 C331.385,160.676 330.125,151.681 330.125,142.207 L330.125,136.731 C330.125,127.258 331.385,118.306 333.905,109.875 C336.513,101.357 340.38,93.8394 345.508,87.3208 C350.723,80.8022 357.242,75.6743 365.064,71.937 C372.973,68.1997 382.229,66.3311 392.833,66.3311 C403.871,66.3311 413.519,68.5908 421.775,73.1104 C430.032,77.543 436.507,83.627 441.201,91.3623 C445.981,99.0107 448.588,107.702 449.023,117.437 L426.078,117.437 C425.643,111.613 423.992,106.355 421.124,101.662 C418.342,96.9683 414.518,93.231 409.651,90.4497 C404.871,87.5815 399.265,86.1475 392.833,86.1475 C385.445,86.1475 379.231,87.625 374.19,90.5801 C369.236,93.4482 365.281,97.3594 362.326,102.313 C359.458,107.181 357.372,112.613 356.068,118.61 C354.852,124.52 354.243,130.561 354.243,136.731 L354.243,142.207 C354.243,148.378 354.852,154.462 356.068,160.459 C357.285,166.456 359.328,171.888 362.196,176.755 C365.151,181.623 369.105,185.534 374.06,188.489 C379.101,191.357 385.358,192.791 392.833,192.791 Z M500.259,9.75 L500.259,210 L476.14,210 L476.14,9.75 L500.259,9.75 Z M494.522,134.124 L484.484,133.733 C484.571,124.085 486.005,115.177 488.786,107.007 C491.567,98.75 495.479,91.5796 500.52,85.4956 C505.561,79.4116 511.558,74.7183 518.511,71.4155 C525.551,68.0259 533.33,66.3311 541.847,66.3311 C548.8,66.3311 555.058,67.2871 560.621,69.1992 C566.183,71.0244 570.92,73.9795 574.831,78.0645 C578.829,82.1494 581.871,87.4512 583.957,93.9697 C586.043,100.4014 587.086,108.267 587.086,117.567 L587.086,210 L562.837,210 L562.837,117.306 C562.837,109.918 561.75,104.008 559.578,99.5757 C557.405,95.0562 554.232,91.7969 550.061,89.7979 C545.889,87.7119 540.761,86.6689 534.677,86.6689 C528.68,86.6689 523.204,87.9292 518.25,90.4497 C513.383,92.9702 509.167,96.4468 505.604,100.8794 C502.127,105.312 499.39,110.396 497.391,116.133 C495.479,121.782 494.522,127.779 494.522,134.124 Z M681.735,212.607 C671.914,212.607 663.005,210.956 655.009,207.653 C647.1,204.264 640.277,199.527 634.541,193.443 C628.892,187.359 624.546,180.145 621.504,171.801 C618.462,163.458 616.941,154.332 616.941,144.423 L616.941,138.948 C616.941,127.475 618.636,117.263 622.025,108.311 C625.415,99.2715 630.021,91.623 635.845,85.3652 C641.668,79.1074 648.273,74.3706 655.661,71.1548 C663.049,67.939 670.697,66.3311 678.606,66.3311 C688.688,66.3311 697.38,68.0693 704.681,71.5459 C712.068,75.0225 718.109,79.8896 722.802,86.1475 C727.496,92.3184 730.972,99.6191 733.232,108.05 C735.492,116.394 736.622,125.52 736.622,135.428 L736.622,146.249 L631.282,146.249 L631.282,126.562 L712.503,126.562 L712.503,124.737 C712.155,118.479 710.852,112.396 708.592,106.485 C706.419,100.5752 702.942,95.708 698.162,91.8838 C693.382,88.0596 686.863,86.1475 678.606,86.1475 C673.131,86.1475 668.09,87.3208 663.483,89.6675 C658.877,91.9272 654.922,95.3169 651.62,99.8364 C648.317,104.356 645.753,109.875 643.928,116.394 C642.103,122.912 641.19,130.43 641.19,138.948 L641.19,144.423 C641.19,151.116 642.103,157.417 643.928,163.327 C645.84,169.15 648.578,174.278 652.141,178.711 C655.792,183.144 660.181,186.62 665.309,189.141 C670.523,191.661 676.434,192.921 683.039,192.921 C691.557,192.921 698.771,191.183 704.681,187.707 C710.591,184.23 715.762,179.58 720.195,173.757 L734.796,185.36 C731.754,189.966 727.887,194.355 723.193,198.527 C718.5,202.699 712.72,206.089 705.854,208.696 C699.075,211.304 691.035,212.607 681.735,212.607 Z M821.232,192.791 C826.969,192.791 832.271,191.618 837.138,189.271 C842.005,186.924 846.003,183.708 849.132,179.624 C852.261,175.452 854.042,170.715 854.477,165.413 L877.422,165.413 C876.988,173.757 874.163,181.536 868.948,188.75 C863.82,195.876 857.084,201.656 848.741,206.089 C840.397,210.435 831.228,212.607 821.232,212.607 C810.629,212.607 801.373,210.739 793.463,207.001 C785.641,203.264 779.123,198.136 773.908,191.618 C768.78,185.099 764.912,177.625 762.305,169.194 C759.784,160.676 758.524,151.681 758.524,142.207 L758.524,136.731 C758.524,127.258 759.784,118.306 762.305,109.875 C764.912,101.357 768.78,93.8394 773.908,87.3208 C779.123,80.8022 785.641,75.6743 793.463,71.937 C801.373,68.1997 810.629,66.3311 821.232,66.3311 C832.271,66.3311 841.918,68.5908 850.175,73.1104 C858.432,77.543 864.907,83.627 869.6,91.3623 C874.38,99.0107 876.988,107.702 877.422,117.437 L854.477,117.437 C854.042,111.613 852.391,106.355 849.523,101.662 C846.742,96.9683 842.917,93.231 838.05,90.4497 C833.27,87.5815 827.664,86.1475 821.232,86.1475 C813.845,86.1475 807.63,87.625 802.589,90.5801 C797.635,93.4482 793.681,97.3594 790.726,102.313 C787.857,107.181 785.771,112.613 784.468,118.61 C783.251,124.52 782.643,130.561 782.643,136.731 L782.643,142.207 C782.643,148.378 783.251,154.462 784.468,160.459 C785.685,166.456 787.727,171.888 790.595,176.755 C793.55,181.623 797.505,185.534 802.459,188.489 C807.5,191.357 813.758,192.791 821.232,192.791 Z M928.789,9.75 L928.789,210 L904.54,210 L904.54,9.75 L928.789,9.75 Z M1014.964,68.9385 L953.429,134.776 L919.011,170.498 L917.055,144.814 L941.695,115.351 L985.5,68.9385 L1014.964,68.9385 Z M992.931,210 L942.608,142.729 L955.124,121.217 L1021.352,210 L992.931,210 Z M1063.85,96.9683 L1063.85,210 L1039.6,210 L1039.6,68.9385 L1062.55,68.9385 L1063.85,96.9683 Z M1058.9,134.124 L1047.69,133.733 C1047.77,124.085 1049.03,115.177 1051.47,107.007 C1053.9,98.75 1057.51,91.5796 1062.29,85.4956 C1067.07,79.4116 1073.02,74.7183 1080.15,71.4155 C1087.28,68.0259 1095.53,66.3311 1104.92,66.3311 C1111.53,66.3311 1117.61,67.2871 1123.17,69.1992 C1128.73,71.0244 1133.56,73.936 1137.64,77.9341 C1141.73,81.9321 1144.9,87.0601 1147.16,93.3179 C1149.42,99.5757 1150.55,107.137 1150.55,116.002 L1150.55,210 L1126.43,210 L1126.43,117.176 C1126.43,109.788 1125.17,103.878 1122.65,99.4453 C1120.22,95.0127 1116.74,91.7969 1112.22,89.7979 C1107.7,87.7119 1102.4,86.6689 1096.32,86.6689 C1089.19,86.6689 1083.23,87.9292 1078.45,90.4497 C1073.67,92.9702 1069.85,96.4468 1066.98,100.8794 C1064.11,105.312 1062.03,110.396 1060.72,116.133 C1059.51,121.782 1058.9,127.779 1058.9,134.124 Z M1150.29,120.826 L1134.12,125.78 C1134.21,118.045 1135.47,110.614 1137.9,103.487 C1140.42,96.3599 1144.03,90.0151 1148.72,84.4526 C1153.5,78.8901 1159.37,74.501 1166.32,71.2852 C1173.28,67.9824 1181.23,66.3311 1190.18,66.3311 C1197.74,66.3311 1204.44,67.3306 1210.26,69.3296 C1216.17,71.3286 1221.12,74.4141 1225.12,78.5859 C1229.21,82.6709 1232.29,87.9292 1234.38,94.3608 C1236.46,100.7925 1237.51,108.441 1237.51,117.306 L1237.51,210 L1213.26,210 L1213.26,117.045 C1213.26,109.136 1212,103.009 1209.48,98.6631 C1207.04,94.2305 1203.57,91.145 1199.05,89.4067 C1194.62,87.5815 1189.31,86.6689 1183.14,86.6689 C1177.84,86.6689 1173.15,87.5815 1169.06,89.4067 C1164.98,91.2319 1161.54,93.7524 1158.76,96.9683 C1155.98,100.0972 1153.85,103.704 1152.38,107.789 C1150.98,111.874 1150.29,116.22 1150.29,120.826 Z M1332.55,212.607 C1322.73,212.607 1313.82,210.956 1305.82,207.653 C1297.91,204.264 1291.09,199.527 1285.35,193.443 C1279.7,187.359 1275.36,180.145 1272.32,171.801 C1269.27,163.458 1267.75,154.332 1267.75,144.423 L1267.75,138.948 C1267.75,127.475 1269.45,117.263 1272.84,108.311 C1276.23,99.2715 1280.83,91.623 1286.66,85.3652 C1292.48,79.1074 1299.09,74.3706 1306.47,71.1548 C1313.86,67.939 1321.51,66.3311 1329.42,66.3311 C1339.5,66.3311 1348.19,68.0693 1355.49,71.5459 C1362.88,75.0225 1368.92,79.8896 1373.61,86.1475 C1378.31,92.3184 1381.78,99.6191 1384.04,108.05 C1386.3,116.394 1387.43,125.52 1387.43,135.428 L1387.43,146.249 L1282.09,146.249 L1282.09,126.562 L1363.32,126.562 L1363.32,124.737 C1362.97,118.479 1361.66,112.396 1359.4,106.485 C1357.23,100.5752 1353.75,95.708 1348.97,91.8838 C1344.19,88.0596 1337.68,86.1475 1329.42,86.1475 C1323.94,86.1475 1318.9,87.3208 1314.3,89.6675 C1309.69,91.9272 1305.73,95.3169 1302.43,99.8364 C1299.13,104.356 1296.57,109.875 1294.74,116.394 C1292.92,122.912 1292,130.43 1292,138.948 L1292,144.423 C1292,151.116 1292.92,157.417 1294.74,163.327 C1296.65,169.15 1299.39,174.278 1302.95,178.711 C1306.6,183.144 1310.99,186.62 1316.12,189.141 C1321.34,191.661 1327.25,192.921 1333.85,192.921 C1342.37,192.921 1349.58,191.183 1355.49,187.707 C1361.4,184.23 1366.57,179.58 1371.01,173.757 L1385.61,185.36 C1382.57,189.966 1378.7,194.355 1374.01,198.527 C1369.31,202.699 1363.53,206.089 1356.67,208.696 C1349.89,211.304 1341.85,212.607 1332.55,212.607 Z M1501.9,177.407 L1501.9,68.9385 L1526.15,68.9385 L1526.15,210 L1503.07,210 L1501.9,177.407 Z M1506.46,147.683 L1516.5,147.422 C1516.5,156.809 1515.5,165.5 1513.5,173.496 C1511.59,181.405 1508.46,188.271 1504.12,194.095 C1499.77,199.918 1494.08,204.481 1487.04,207.784 C1480,211 1471.44,212.607 1461.35,212.607 C1454.49,212.607 1448.19,211.608 1442.45,209.609 C1436.8,207.61 1431.93,204.524 1427.85,200.353 C1423.76,196.181 1420.59,190.749 1418.33,184.056 C1416.16,177.364 1415.07,169.324 1415.07,159.938 L1415.07,68.9385 L1439.19,68.9385 L1439.19,160.198 C1439.19,166.543 1439.89,171.801 1441.28,175.973 C1442.75,180.058 1444.71,183.317 1447.14,185.751 C1449.66,188.098 1452.45,189.749 1455.49,190.705 C1458.62,191.661 1461.83,192.139 1465.14,192.139 C1475.39,192.139 1483.52,190.184 1489.51,186.272 C1495.51,182.274 1499.81,176.929 1502.42,170.237 C1505.12,163.458 1506.46,155.939 1506.46,147.683 Z M1587.03,96.0557 L1587.03,264.234 L1562.78,264.234 L1562.78,68.9385 L1584.95,68.9385 L1587.03,96.0557 Z M1682.07,138.296 L1682.07,141.034 C1682.07,151.29 1680.86,160.807 1678.42,169.585 C1675.99,178.276 1672.43,185.838 1667.73,192.27 C1663.13,198.701 1657.43,203.699 1650.65,207.262 C1643.87,210.826 1636.1,212.607 1627.32,212.607 C1618.36,212.607 1610.46,211.13 1603.59,208.175 C1596.72,205.22 1590.9,200.917 1586.12,195.268 C1581.34,189.619 1577.52,182.839 1574.65,174.93 C1571.87,167.021 1569.95,158.112 1568.91,148.204 L1568.91,133.603 C1569.95,123.173 1571.91,113.83 1574.78,105.573 C1577.65,97.3159 1581.43,90.2759 1586.12,84.4526 C1590.9,78.5425 1596.68,74.0664 1603.46,71.0244 C1610.24,67.8955 1618.06,66.3311 1626.93,66.3311 C1635.79,66.3311 1643.66,68.0693 1650.52,71.5459 C1657.39,74.9355 1663.17,79.8027 1667.86,86.1475 C1672.56,92.4922 1676.08,100.0972 1678.42,108.962 C1680.86,117.741 1682.07,127.519 1682.07,138.296 Z M1657.82,141.034 L1657.82,138.296 C1657.82,131.256 1657.08,124.65 1655.61,118.479 C1654.13,112.222 1651.83,106.746 1648.7,102.053 C1645.66,97.2725 1641.74,93.5352 1636.96,90.8408 C1632.18,88.0596 1626.49,86.6689 1619.89,86.6689 C1613.8,86.6689 1608.5,87.7119 1603.98,89.7979 C1599.55,91.8838 1595.77,94.7085 1592.64,98.272 C1589.51,101.749 1586.95,105.747 1584.95,110.266 C1583.03,114.699 1581.6,119.305 1580.64,124.085 L1580.64,157.852 C1582.38,163.936 1584.82,169.672 1587.94,175.061 C1591.07,180.362 1595.25,184.665 1600.46,187.967 C1605.68,191.183 1612.24,192.791 1620.15,192.791 C1626.67,192.791 1632.27,191.444 1636.96,188.75 C1641.74,185.968 1645.66,182.188 1648.7,177.407 C1651.83,172.627 1654.13,167.151 1655.61,160.98 C1657.08,154.723 1657.82,148.074 1657.82,141.034 Z" id="Shape" fill="#DDDDDD" fill-rule="nonzero"></path>
        </g>
    </g>
</svg>